{"title":"Ted[2012]BRrip[Ac3-5.1]-=[CaLvIn]=-","uid":7812782,"size":786007458,"categoryP":"video","categoryS":"movies","magnet":"?xt=urn:btih:3906f1da3f14e06929c1a9d356d735b3a36ab809&amp;dn=Ted%5B2012%5DBRrip%5BAc3-5.1%5D-%3D%5BCaLvIn%5D%3D-&amp;tr=udp%3A%2F%2Ftracker.openbittorrent.com%3A80&amp;tr=udp%3A%2F%2Fopen.demonii.com%3A1337&amp;tr=udp%3A%2F%2Ftracker.coppersurfer.tk%3A6969&amp;tr=udp%3A%2F%2Fexodus.desync.com%3A6969","seeders":1,"leechers":2,"uploader":"rhythmtheguru","files":15,"time":1352574906,"description":"General\nComplete name                    : Ted[2012]BRrip[Ac3-5.1]-=[CaLvIn]=-\nImdb Link                        : http://www.imdb.com/title/tt1637725/\nFormat                           : AVI\nFormat/Info                      : Audio Video Interleave\nFile size                        : 736 MiB\nDuration                         : 1h 46mn\nOverall bit rate                 : 971 Kbps\nWriting application              : VirtualDubMod 1.5.10.3 | www.virtualdub-fr.org || (build 2550/release)\nWriting library                  : VirtualDubMod build 2550/release\n\nVideo\nID                               : 0\nFormat                           : MPEG-4 Visual\nFormat profile                   : Advanced Simple@L5\nFormat settings, BVOP            : 2\nFormat settings, QPel            : No\nFormat settings, GMC             : No warppoints\nFormat settings, Matrix          : Default (H.263)\nCodec ID                         : XVID\nCodec ID/Hint                    : XviD\nDuration                         : 1h 46mn\nBit rate                         : 705 Kbps\nWidth                            : 720 pixels\nHeight                           : 384 pixels\nDisplay aspect ratio             : 16:9\nFrame rate                       : 23.976 fps\nColor space                      : YUV\nChroma subsampling               : 4:2:0\nBit depth                        : 8 bits\nScan type                        : Progressive\nCompression mode                 : Lossy\nBits/(Pixel*Frame)               : 0.106\nStream size                      : 535 MiB (73%)\nWriting library                  : XviD 1.2.1 (UTC 2008-12-04)\n\nAudio\nID                               : 1\nFormat                           : AC-3\nFormat/Info                      : Audio Coding 3\nMode extension                   : CM (complete main)\nCodec ID                         : 2000\nDuration                         : 1h 46mn\nBit rate mode                    : Constant\nBit rate                         : 256 Kbps\nChannel(s)                       : 6 channels\nChannel positions                : Front: L C R, Side: L R, LFE\nSampling rate                    : 48.0 KHz\nBit depth                        : 16 bits\nCompression mode                 : Lossy\nStream size                      : 194 MiB (26%)\nAlignment                        : Split accross interleaves\nInterleave, duration             : 42 ms (1.00 video frame)\nInterleave, preload duration     : 500 ms\n\n\nScreens\n &lt;a href=&quot;\nhttp://img696.imageshack.us/img696/9744/30044642.png&quot; rel=&quot;nofollow&quot; target=&quot;_NEW&quot;&gt;\nhttp://img696.imageshack.us/img696/9744/30044642.png&lt;/a&gt; &lt;a href=&quot;\nhttp://img338.imageshack.us/img338/1885/29437287.png&quot; rel=&quot;nofollow&quot; target=&quot;_NEW&quot;&gt;\nhttp://img338.imageshack.us/img338/1885/29437287.png&lt;/a&gt; &lt;a href=&quot;\nhttp://img845.imageshack.us/img845/5066/53048836.png&quot; rel=&quot;nofollow&quot; target=&quot;_NEW&quot;&gt;\nhttp://img845.imageshack.us/img845/5066/53048836.png&lt;/a&gt; &lt;a href=&quot;\nhttp://img94.imageshack.us/img94/2479/57962243.png&quot; rel=&quot;nofollow&quot; target=&quot;_NEW&quot;&gt;\nhttp://img94.imageshack.us/img94/2479/57962243.png&lt;/a&gt; &lt;a href=&quot;\nhttp://img822.imageshack.us/img822/963/62492612.png&quot; rel=&quot;nofollow&quot; target=&quot;_NEW&quot;&gt;\nhttp://img822.imageshack.us/img822/963/62492612.png&lt;/a&gt; &lt;a href=&quot;\nhttp://img825.imageshack.us/img825/1774/61501264.png&quot; rel=&quot;nofollow&quot; target=&quot;_NEW&quot;&gt;\nhttp://img825.imageshack.us/img825/1774/61501264.png&lt;/a&gt; &lt;a href=&quot;\nhttp://img546.imageshack.us/img546/4310/57418869.png&quot; rel=&quot;nofollow&quot; target=&quot;_NEW&quot;&gt;\nhttp://img546.imageshack.us/img546/4310/57418869.png&lt;/a&gt; &lt;a href=&quot;\nhttp://img835.imageshack.us/img835/8904/57536430.png&quot; rel=&quot;nofollow&quot; target=&quot;_NEW&quot;&gt;\nhttp://img835.imageshack.us/img835/8904/57536430.png&lt;/a&gt; &lt;a href=&quot;\nhttp://img838.imageshack.us/img838/6643/73105621.png&quot; rel=&quot;nofollow&quot; target=&quot;_NEW&quot;&gt;\nhttp://img838.imageshack.us/img838/6643/73105621.png&lt;/a&gt; &lt;a href=&quot;\nhttp://img836.imageshack.us/img836/4165/10594150.png&quot; rel=&quot;nofollow&quot; target=&quot;_NEW&quot;&gt;\nhttp://img836.imageshack.us/img836/4165/10594150.png&lt;/a&gt;\n","torrent":{"xt":"urn:btih:3906f1da3f14e06929c1a9d356d735b3a36ab809","amp;dn":"Ted%5B2012%5DBRrip%5BAc3-5.1%5D-%3D%5BCaLvIn%5D%3D-","amp;tr":["udp%3A%2F%2Ftracker.openbittorrent.com%3A80","udp%3A%2F%2Fopen.demonii.com%3A1337","udp%3A%2F%2Ftracker.coppersurfer.tk%3A6969","udp%3A%2F%2Fexodus.desync.com%3A6969"],"infoHash":"3906f1da3f14e06929c1a9d356d735b3a36ab809","infoHashBuffer":{"type":"Buffer","data":[57,6,241,218,63,20,224,105,41,193,169,211,86,215,53,179,163,106,184,9]},"announce":[],"urlList":[]}}